<svg xmlns="http://www.w3.org/2000/svg" width="200" height="200" version="1.0" viewBox="0 0 150 150"><defs><clipPath id="a"><path d="M50.73 36.098h58.5V92h-58.5Zm0 0"/></clipPath><clipPath id="b"><path d="M75 36.098h3V102h-3Zm0 0"/></clipPath><clipPath id="c"><path d="M51 94h50v12.598H51Zm0 0"/></clipPath></defs><g clip-path="url(#a)"><path fill="#f4e9db" d="m76.324 91.727-25.484-.735 25.484-37.12Zm.5 0 32.297-1.668-32.797-53.895Zm0 0"/></g><g clip-path="url(#b)"><path fill="#e58c51" d="M76.324 101.586c.567 0 1.067-.535 1.067-1.172 0 0-.5-64.316-1.067-64.316-.57 0-1.07 64.316-1.07 64.316 0 .637.469 1.172 1.07 1.172Zm0 0"/></g><g clip-path="url(#c)"><path fill="#a65018" d="M100.871 95.871c.035.168-.703 1.102-1.437 1.805a51.852 51.852 0 0 1-5.278 4.242c-2.234 1.539-4.605 2.742-7.644 3.91-.739.3-5.645.77-10.223.77-4.574 0-8.781-.47-9.55-.77-3.04-1.137-6.048-2.34-8.317-3.91a44.088 44.088 0 0 1-5.277-4.242c-.735-.668-1.438-1.637-1.438-1.805.203-1.437 48.996-1.437 49.164 0Zm0 0"/></g></svg>