<svg xmlns="http://www.w3.org/2000/svg" xmlns:xlink="http://www.w3.org/1999/xlink" width="150" zoomAndPan="magnify" viewBox="0 0 112.5 74.999997" height="100" preserveAspectRatio="xMidYMid meet" version="1.0"><defs><clipPath id="1203ea0620"><path d="M 36.023438 34 L 81.144531 34 L 81.144531 42.492188 L 36.023438 42.492188 Z M 36.023438 34 " clip-rule="nonzero"/></clipPath><clipPath id="4e0bdb2faf"><path d="M 42.957031 38.296875 C 34.394531 35.847656 32.011719 45.8125 46.246094 41.285156 C 48.523438 42.566406 51.160156 42.890625 54.429688 41.523438 C 57.957031 42.824219 60.855469 42.632812 63.296875 41.359375 C 65.980469 42.316406 68.695312 42.710938 71.511719 41.46875 C 73.125 42.597656 74.761719 42.371094 76.414062 41.382812 C 81.8125 42.53125 82.191406 40.003906 79.539062 39.894531 C 78.367188 38.0625 77.601562 38.007812 75.859375 38.640625 C 75.449219 36.746094 74.492188 36.144531 72.996094 36.800781 C 73.460938 33.851562 72.234375 32.992188 69.824219 33.59375 C 70.3125 26.503906 62.625 25.5625 58.960938 30.144531 C 54.078125 28.195312 50.773438 30.15625 51.460938 33.886719 C 50.378906 33.894531 49.5 34.15625 49.1875 35.128906 C 46.414062 35 43.808594 35.867188 42.957031 38.296875 Z M 42.957031 38.296875 " clip-rule="evenodd"/></clipPath></defs><path fill="#ffffff" d="M 42.957031 38.296875 C 34.394531 35.847656 32.011719 45.8125 46.246094 41.285156 C 48.523438 42.566406 51.160156 42.890625 54.429688 41.523438 C 57.957031 42.824219 60.855469 42.632812 63.296875 41.359375 C 65.980469 42.316406 68.695312 42.710938 71.511719 41.46875 C 73.125 42.597656 74.761719 42.371094 76.414062 41.382812 C 81.8125 42.53125 82.191406 40.003906 79.539062 39.894531 C 78.367188 38.0625 77.601562 38.007812 75.859375 38.640625 C 75.449219 36.746094 74.492188 36.144531 72.996094 36.800781 C 73.460938 33.851562 72.234375 32.992188 69.824219 33.59375 C 70.3125 26.503906 62.625 25.5625 58.960938 30.144531 C 54.078125 28.195312 50.773438 30.15625 51.460938 33.886719 C 50.378906 33.894531 49.5 34.15625 49.1875 35.128906 C 46.414062 35 43.808594 35.867188 42.957031 38.296875 Z M 42.957031 38.296875 " fill-opacity="1" fill-rule="evenodd"/><g clip-path="url(#1203ea0620)"><g clip-path="url(#4e0bdb2faf)"><path fill="#f1e8e8" d="M 37.371094 38.359375 C 37.476562 38.175781 37.382812 38.789062 37.464844 38.980469 C 38.179688 40.632812 39.710938 41.039062 41.367188 40.753906 C 42.789062 40.511719 44.363281 39.652344 45.8125 39.738281 C 47.382812 39.832031 48.371094 41.089844 50.125 40.75 C 51.402344 40.503906 54.136719 38.144531 54.148438 38.144531 C 55.382812 38.058594 57.191406 40.0625 59.765625 39.425781 C 61.789062 38.917969 61.859375 36.75 60.851562 35.289062 C 60.808594 35.230469 60.503906 34.882812 60.609375 34.796875 C 60.945312 34.523438 62.679688 36.109375 63.246094 36.109375 C 64.191406 36.109375 65.144531 35.738281 66.09375 35.671875 C 66.121094 35.671875 66.511719 35.640625 66.5 35.707031 C 66.492188 35.757812 66.3125 35.804688 66.273438 35.816406 C 65.027344 36.28125 61.265625 37.945312 64.136719 39.375 C 65.84375 40.226562 67.667969 38.851562 69.34375 38.640625 C 70.535156 38.492188 70.671875 39.957031 71.671875 40.300781 C 73.027344 40.765625 74.519531 40.316406 75.90625 40.378906 C 76.988281 40.429688 77.867188 40.882812 78.867188 41.226562 C 79.613281 41.476562 83.546875 40.964844 83.207031 42.253906 C 82.796875 43.792969 72.5 44.523438 71.214844 44.601562 C 61.929688 45.152344 52.117188 46.203125 42.933594 44.25 C 39.835938 43.59375 34.453125 42.042969 33.957031 38.121094 " fill-opacity="1" fill-rule="evenodd"/></g></g></svg>