<svg class="cloud" xmlns="http://www.w3.org/2000/svg" width="150" height="100" version="1.0" viewBox="0 0 112.5 75"><defs><clipPath id="a"><path d="M36.023 34h45.122v8.492H36.023Zm0 0"/></clipPath><clipPath id="b"><path d="M42.957 38.297c-8.562-2.45-10.945 7.516 3.29 2.988 2.276 1.281 4.913 1.606 8.183.238 3.527 1.301 6.425 1.11 8.867-.164 2.683.957 5.398 1.352 8.215.11 1.613 1.129 3.25.902 4.902-.086 5.398 1.148 5.777-1.38 3.125-1.488-1.172-1.833-1.937-1.887-3.68-1.254-.41-1.895-1.367-2.496-2.863-1.84.465-2.95-.762-3.809-3.172-3.207.489-7.09-7.199-8.032-10.863-3.45-4.883-1.949-8.188.012-7.5 3.743-1.082.008-1.961.27-2.273 1.242-2.774-.129-5.38.738-6.231 3.168Zm0 0" clip-rule="evenodd"/></clipPath></defs><path fill="#fff" fill-rule="evenodd" d="M42.957 38.297c-8.562-2.45-10.945 7.516 3.29 2.988 2.276 1.281 4.913 1.606 8.183.238 3.527 1.301 6.425 1.11 8.867-.164 2.683.957 5.398 1.352 8.215.11 1.613 1.129 3.25.902 4.902-.086 5.398 1.148 5.777-1.38 3.125-1.488-1.172-1.833-1.937-1.887-3.68-1.254-.41-1.895-1.367-2.496-2.863-1.84.465-2.95-.762-3.809-3.172-3.207.489-7.09-7.199-8.032-10.863-3.45-4.883-1.949-8.188.012-7.5 3.743-1.082.008-1.961.27-2.273 1.242-2.774-.129-5.38.738-6.231 3.168Zm0 0"/><g clip-path="url(#a)"><g clip-path="url(#b)"><path fill="#f1e8e8" fill-rule="evenodd" d="M37.371 38.36c.106-.184.012.43.094.62.715 1.653 2.246 2.06 3.902 1.774 1.422-.242 2.996-1.102 4.446-1.016 1.57.094 2.558 1.352 4.312 1.012 1.277-.246 4.012-2.605 4.023-2.605 1.235-.086 3.043 1.917 5.618 1.28 2.023-.507 2.093-2.675 1.086-4.136-.043-.059-.348-.406-.243-.492.336-.274 2.07 1.312 2.637 1.312.945 0 1.899-.37 2.848-.437.027 0 .418-.031.406.035-.008.05-.188.098-.227.11-1.246.464-5.007 2.128-2.136 3.558 1.707.852 3.531-.523 5.207-.734 1.191-.149 1.328 1.316 2.328 1.66 1.355.465 2.848.015 4.234.078 1.082.05 1.961.504 2.961.848.746.25 4.68-.262 4.34 1.027-.41 1.539-10.707 2.27-11.992 2.348-9.285.55-19.098 1.601-28.281-.352-3.098-.656-8.48-2.207-8.977-6.129"/></g></g></svg>
