<svg xmlns="http://www.w3.org/2000/svg" xmlns:xlink="http://www.w3.org/1999/xlink" width="1920" zoomAndPan="magnify" viewBox="0 0 1440 809.999993" height="1080" preserveAspectRatio="xMidYMid meet" version="1.0"><defs><clipPath id="6e8c5388b8"><path d="M 8 376 L 1406.910156 376 L 1406.910156 613 L 8 613 Z M 8 376 " clip-rule="nonzero"/></clipPath><clipPath id="cc62281d52"><path d="M 222.386719 484.835938 C -43.136719 409.914062 -117.058594 714.871094 324.457031 576.292969 C 395.109375 615.542969 476.867188 625.472656 578.273438 583.546875 C 687.683594 623.355469 777.585938 617.542969 853.277344 578.550781 C 936.558594 607.847656 1020.839844 619.976562 1108.09375 581.910156 C 1158.140625 616.5 1208.957031 609.542969 1260.199219 579.253906 C 1427.699219 614.378906 1439.429688 537.070312 1357.136719 533.730469 C 1320.808594 477.769531 1297.019531 476.0625 1242.984375 495.441406 C 1230.339844 437.457031 1200.546875 419.097656 1154.148438 439.109375 C 1168.652344 348.882812 1130.578125 322.605469 1055.765625 341.027344 C 1070.949219 124.128906 832.476562 95.351562 718.792969 235.527344 C 567.382812 175.875 464.863281 235.894531 486.195312 350.007812 C 452.636719 350.171875 425.421875 358.199219 415.695312 387.929688 C 329.644531 384.003906 248.777344 410.527344 222.386719 484.835938 Z M 222.386719 484.835938 " clip-rule="evenodd"/></clipPath></defs><path fill="#ffffff" d="M 222.386719 484.835938 C -43.136719 409.914062 -117.058594 714.871094 324.457031 576.292969 C 395.109375 615.542969 476.867188 625.472656 578.273438 583.546875 C 687.683594 623.355469 777.585938 617.542969 853.277344 578.550781 C 936.554688 607.847656 1020.839844 619.976562 1108.09375 581.910156 C 1158.140625 616.5 1208.957031 609.546875 1260.199219 579.253906 C 1427.699219 614.378906 1439.429688 537.070312 1357.136719 533.730469 C 1320.808594 477.769531 1297.015625 476.0625 1242.984375 495.441406 C 1230.335938 437.457031 1200.546875 419.097656 1154.148438 439.109375 C 1168.652344 348.882812 1130.578125 322.605469 1055.765625 341.027344 C 1070.949219 124.128906 832.476562 95.351562 718.792969 235.527344 C 567.382812 175.875 464.863281 235.894531 486.195312 350.007812 C 452.636719 350.171875 425.421875 358.199219 415.695312 387.929688 C 329.644531 384.003906 248.777344 410.527344 222.386719 484.835938 Z M 222.386719 484.835938 " fill-opacity="1" fill-rule="evenodd"/><g clip-path="url(#6e8c5388b8)"><g clip-path="url(#cc62281d52)"><path fill="#f1e8e8" d="M 49.1875 486.800781 C 52.355469 481.230469 49.503906 499.917969 52.078125 505.78125 C 74.246094 556.359375 121.761719 568.78125 173.035156 560.097656 C 217.15625 552.621094 265.96875 526.316406 311.023438 529 C 359.703125 531.902344 390.320312 570.335938 444.71875 559.945312 C 484.429688 552.367188 569.148438 480.28125 569.566406 480.25 C 607.785156 477.613281 664.003906 538.960938 743.769531 519.378906 C 806.558594 503.953125 808.714844 437.578125 777.464844 392.925781 C 776.164062 391.066406 766.707031 380.410156 769.976562 377.792969 C 780.40625 369.449219 834.160156 417.984375 851.804688 417.984375 C 881.125 417.984375 910.648438 406.625 940.050781 404.609375 C 940.9375 404.550781 953.085938 403.652344 952.726562 405.613281 C 952.441406 407.1875 946.824219 408.636719 945.699219 409.046875 C 906.980469 423.285156 790.355469 474.089844 879.378906 517.847656 C 932.328125 543.875 988.863281 501.910156 1040.902344 495.460938 C 1077.84375 490.875 1082.132812 535.671875 1113.097656 546.195312 C 1155.128906 560.46875 1201.457031 546.664062 1244.515625 548.636719 C 1278.066406 550.167969 1305.292969 564.011719 1336.347656 574.464844 C 1359.417969 582.226562 1481.488281 566.554688 1470.902344 605.9375 C 1458.246094 653.003906 1138.84375 675.417969 1098.890625 677.757812 C 810.890625 694.613281 506.605469 726.761719 221.703125 667.0625 C 125.582031 646.925781 -41.410156 599.554688 -56.710938 479.496094 " fill-opacity="1" fill-rule="evenodd"/></g></g></svg>