<svg xmlns="http://www.w3.org/2000/svg" width="200" height="200" version="1.0" viewBox="0 0 150 150"><defs><clipPath id="a"><path d="M0 53.914h149.93v43.297H0Zm0 0"/></clipPath><clipPath id="b"><path d="M139.484 80.766a18.4 18.4 0 0 0-2.804.074c-.684-3.52-6.14-6.485-12.922-6.817-3.203-.156-6.176.301-8.524 1.192-1.605-.778-3.82-.918-6.468.113-.938.367-2.371 1.074-3.864 1.953-1.715-3.879-6.222-7.715-12.207-9.883-5.07-1.84-10.086-2.074-13.804-.957-5.051-6.832-15.215-12.05-23.922-12.472-12.52-.614-18.836 4.011-19.2 11.523-.019.414.032.86.133 1.32-2.21-1.777-5.496-2.46-8.789-1.539-3.336.934-5.82 3.274-6.77 5.985a20.805 20.805 0 0 0-2.03-.211c-7.825-.383-15.954 1.59-18.024 5.262-1.414 2.511 2.512 6.285 8.703 7.484.203 2.988 5.375 5.61 11.863 5.93 2.07.097 4.032-.047 5.758-.387 1.82 4.219 7.64 7.5 14.688 7.844 6.52.32 12.238-1.965 14.812-5.5 1.543 1.246 3.625 2.07 5.957 2.183 2.84.137 5.422-.8 7.157-2.375 2.046 1.739 5.671 3 9.855 3.203 5.11.25 9.531-1.148 11.34-3.324 2.738 1.211 6.625 2.074 10.976 2.285 5.997.293 11.239-.73 13.84-2.457 1.793.48 3.86.75 6.063.727 4.668-.055 8.703-1.39 10.742-3.313 1.703 1.055 4.18 1.79 6.969 1.926 5.297.258 10.77-.25 10.898-2.945.133-2.7-5.129-6.567-10.426-6.824Zm0 0"/></clipPath><clipPath id="c"><path d="M139.484 80.766a18.4 18.4 0 0 0-2.804.074c-.684-3.524-6.14-6.485-12.922-6.817-3.203-.156-6.176.301-8.524 1.192-1.605-.778-3.82-.918-6.464.113-.942.367-2.375 1.074-3.868 1.953-1.71-3.879-6.222-7.715-12.207-9.883-5.07-1.84-10.086-2.074-13.804-.957-5.051-6.832-15.215-12.05-23.922-12.472-12.52-.614-18.836 4.011-19.2 11.523-.019.414.032.86.133 1.32-2.21-1.777-5.496-2.46-8.789-1.539-3.336.934-5.82 3.274-6.77 5.985a20.805 20.805 0 0 0-2.03-.211c-7.825-.383-15.954 1.59-18.024 5.262-1.414 2.511 2.512 6.285 8.703 7.484.203 2.988 5.375 5.61 11.863 5.93 2.07.097 4.032-.047 5.758-.387 1.82 4.219 7.64 7.5 14.688 7.844 6.52.32 12.238-1.965 14.812-5.5 1.543 1.246 3.625 2.07 5.957 2.183 2.84.137 5.422-.8 7.157-2.375 2.046 1.739 5.671 3 9.855 3.203 5.11.25 9.531-1.148 11.34-3.324 2.738 1.211 6.625 2.074 10.976 2.285 6 .293 11.239-.73 13.84-2.457 1.793.48 3.86.75 6.063.727 4.668-.055 8.703-1.39 10.742-3.313 1.707 1.055 4.18 1.79 6.969 1.926 5.297.258 10.77-.25 10.902-2.945.129-2.7-5.129-6.567-10.43-6.824"/></clipPath><clipPath id="d"><path d="M148.965 41.445-3.566 54.211l4.601 55.465 152.531-12.762Zm0 0"/></clipPath><clipPath id="f"><path d="M3.61 76.156H150v21.055H3.61Zm0 0"/></clipPath><linearGradient id="e" x1="-.251" x2="1.398" y1="0" y2="0" gradientTransform="matrix(2.79262 33.65153 -33.50894 2.8045 72.802 56.309)" gradientUnits="userSpaceOnUse"><stop offset="0" stop-color="#FEB95E"/><stop offset=".125" stop-color="#FEB95E"/><stop offset=".156" stop-color="#FEB95E"/><stop offset=".164" stop-color="#FEB85E"/><stop offset=".172" stop-color="#FEB85E"/><stop offset=".188" stop-color="#FEB75E"/><stop offset=".191" stop-color="#FEB65E"/><stop offset=".195" stop-color="#FEB55E"/><stop offset=".203" stop-color="#FEB45F"/><stop offset=".211" stop-color="#FEB45F"/><stop offset=".219" stop-color="#FEB35F"/><stop offset=".227" stop-color="#FEB35F"/><stop offset=".23" stop-color="#FEB15F"/><stop offset=".234" stop-color="#FEB15F"/><stop offset=".242" stop-color="#FEB15F"/><stop offset=".25" stop-color="#FEB05F"/><stop offset=".258" stop-color="#FEAF5F"/><stop offset=".266" stop-color="#FEAE5F"/><stop offset=".273" stop-color="#FEAE5F"/><stop offset=".281" stop-color="#FEAD5F"/><stop offset=".289" stop-color="#FEAC60"/><stop offset=".297" stop-color="#FEAC60"/><stop offset=".313" stop-color="#FEAB60"/><stop offset=".316" stop-color="#FEAA60"/><stop offset=".32" stop-color="#FEA960"/><stop offset=".328" stop-color="#FEA960"/><stop offset=".336" stop-color="#FEA860"/><stop offset=".344" stop-color="#FEA860"/><stop offset=".352" stop-color="#FEA760"/><stop offset=".355" stop-color="#FEA560"/><stop offset=".359" stop-color="#FEA560"/><stop offset=".367" stop-color="#FEA460"/><stop offset=".375" stop-color="#FEA460"/><stop offset=".383" stop-color="#FEA361"/><stop offset=".391" stop-color="#FEA261"/><stop offset=".395" stop-color="#FEA161"/><stop offset=".398" stop-color="#FEA161"/><stop offset=".406" stop-color="#FEA161"/><stop offset=".414" stop-color="#FEA061"/><stop offset=".422" stop-color="#FE9F61"/><stop offset=".438" stop-color="#FE9F61"/><stop offset=".441" stop-color="#FE9E61"/><stop offset=".445" stop-color="#FE9D61"/><stop offset=".453" stop-color="#FE9C61"/><stop offset=".461" stop-color="#FE9C61"/><stop offset=".469" stop-color="#FF9B62"/><stop offset=".477" stop-color="#FF9B62"/><stop offset=".48" stop-color="#FF9962"/><stop offset=".484" stop-color="#FF9962"/><stop offset=".5" stop-color="#FF9862"/><stop offset=".508" stop-color="#FF9762"/><stop offset=".516" stop-color="#FF9662"/><stop offset=".52" stop-color="#FF9562"/><stop offset=".523" stop-color="#FF9562"/><stop offset=".531" stop-color="#FF9562"/><stop offset=".539" stop-color="#FF9462"/><stop offset=".547" stop-color="#FF9362"/><stop offset=".555" stop-color="#FF9263"/><stop offset=".563" stop-color="#FF9263"/><stop offset=".57" stop-color="#FF9163"/><stop offset=".578" stop-color="#FF9163"/><stop offset=".586" stop-color="#FF9063"/><stop offset=".594" stop-color="#FF8F63"/><stop offset=".602" stop-color="#FF8E63"/><stop offset=".605" stop-color="#FF8D63"/><stop offset=".609" stop-color="#FF8D63"/><stop offset=".617" stop-color="#FF8C63"/><stop offset=".625" stop-color="#FF8B63"/><stop offset=".633" stop-color="#FF8B63"/><stop offset=".641" stop-color="#FF8A63"/><stop offset=".645" stop-color="#FF8964"/><stop offset=".648" stop-color="#FF8964"/><stop offset=".656" stop-color="#FF8864"/><stop offset=".664" stop-color="#FF8864"/><stop offset=".672" stop-color="#FF8764"/><stop offset=".68" stop-color="#FF8664"/><stop offset=".688" stop-color="#FF8564"/><stop offset=".695" stop-color="#FF8564"/><stop offset=".703" stop-color="#FF8564"/><stop offset=".711" stop-color="#FF8464"/><stop offset=".719" stop-color="#FF8364"/><stop offset=".727" stop-color="#FF8264"/><stop offset=".73" stop-color="#FF8165"/><stop offset=".734" stop-color="#FF8165"/><stop offset=".742" stop-color="#FF8065"/><stop offset=".75" stop-color="#FF7F65"/><stop offset=".875" stop-color="#FF7F65"/><stop offset="1" stop-color="#FF7E65"/></linearGradient></defs><g clip-path="url(#a)"><g clip-path="url(#b)"><g clip-path="url(#c)"><g clip-path="url(#d)"><path fill="url(#e)" d="M148.895 41.453-3.566 54.211l4.601 55.46L153.5 96.915Zm0 0"/></g></g></g></g><g clip-path="url(#f)"><path fill="#fd654e" d="M3.672 81.879c16.023 4.031 18.726.473 20.46.172 2.821 6.945 14.4 9.812 22.688 7.32 9.207-5.726-1.554-10.867-1.554-10.867 21.406 6.46 29.902-2.313 29.902-2.313-.715 5.196-5.316 4.868-6.676 7.516-1.117 2.168 5.047 4.125 7.317 4.762 2.789.27 5.64.058 7.972-.645.258-.11 5.598-2.449 7.016-6.941 0 0 1.875 2.047 1.348 3.98-.383 1.399 1.671 2.403 4.222 2.864 6.274.816 13.031.183 16.332-1.907 5.89 1.723 13.54.782 16.864-2.23 4.996 3.242 16.359 2.77 17.683.047 9.758 7.386-9.07 8.754-15.195 4.965-3.235 3.062-10.848 4.199-16.809 2.593-4.898 3.254-17.597 3.368-24.82.172-3.668 4.414-16.098 4.485-21.219.102-3.441 3.129-9.336 3.222-13.078.199-6.125 8.437-25.547 6.863-29.512-2.332-11.789 6.555-23.601-7.621-22.941-7.457"/></g><path fill="#fbe59c" d="M116.156 79.25c-3.386-1.625-7.082.168-10.297 2.055-3.476-7.883-17.023-13.54-26.007-10.84-11.606-15.692-42.325-17.488-43.122-.95-.023.426.032.883.137 1.356-2.207-1.789-6.199-3.594-9.504-2.672-3.332.934-6.992 3.063-6.992 3.063 2.117-6.035 10.582-8.43 15.535-4.414-.879-3.942 1.414-13.743 19.063-12.88 8.707.423 18.87 5.641 23.922 12.473 3.718-1.117 8.734-.882 13.804.957 5.985 2.168 10.493 6.004 12.203 9.883 3.215-1.886 6.907-3.68 10.301-2.054 9.367-3.57 23.324 1.085 21.38 7.48-3.528-4.379-13.599-6.055-20.423-3.457"/></svg>