<svg xmlns="http://www.w3.org/2000/svg" width="200" height="200" version="1.0" viewBox="0 0 150 150"><defs><clipPath id="a"><path d="M0 40.68h150v58.18H0Zm0 0"/></clipPath><clipPath id="b"><path d="M142.254 82.563c-.438 0-.895.039-1.36.097.227-1.527-.761-3.14-2.449-3.644-1.433-.43-3.097-.403-4.363.011-.16-2.14-1.633-4.355-4.008-5.656-2.426-1.332-5.125-1.348-7.004-.262-.312-1.671-1.57-3.316-3.468-4.265-1.352-.676-2.79-.875-4.051-.664 1.504-5.25-1.188-11.305-6.715-14.336-2.918-1.602-6.113-2.063-9.004-1.547-.414-2.48-2.293-4.738-5.039-5.684-2.266-.773-4.602-.476-6.379.602-1.355-3.485-5.117-6.16-9.73-6.496-4.454-.328-8.442 1.62-10.368 4.683-1.414-.957-3.336-1.297-5.246-.754-1.687.48-3.027 1.555-3.8 2.88-2.196-2.25-6.227-2.778-9.946-1.06-3.332 1.544-5.465 4.45-5.683 7.298-3.196-1.067-7.059-.977-10.786.535-5.753 2.336-9.414 7.34-9.48 12.246a9.095 9.095 0 0 0-4.516-1.192c-4.453 0-8.132 3.149-8.789 7.254-.48-.07-.972-.117-1.48-.117-4.727 0-8.563 3.336-8.563 7.453 0 4.118 3.836 7.453 8.563 7.453 1.46 0 2.832-.32 4.035-.878.54 2.77 3.7 4.898 7.523 4.898 2.2 0 4.172-.707 5.563-1.828.844 5.23 6.207 9.27 12.715 9.27 5.16 0 9.597-2.547 11.64-6.208a6.777 6.777 0 0 0 4.801 1.965c3.106 0 5.707-2.043 6.465-4.812 2.078 2.922 5.926 4.89 10.34 4.89 3.84 0 7.25-1.488 9.441-3.797 2.719 2.922 7.075 4.829 12.004 4.829 5.13 0 9.649-2.055 12.336-5.18 1.363 3.32 5.484 5.734 10.356 5.734 2.484 0 4.77-.636 6.597-1.691 1.844 1.617 5.5 2.722 9.711 2.722 3.305 0 6.258-.683 8.274-1.753.64.105 1.27.168 1.863.168 4.277 0 7.746-2.95 7.746-6.582 0-3.637-3.469-6.582-7.746-6.582Zm0 0"/></clipPath><clipPath id="c"><path d="M142.254 82.563c-.438 0-.895.039-1.36.097.227-1.527-.761-3.14-2.449-3.644-1.433-.43-3.097-.403-4.363.011-.16-2.14-1.633-4.355-4.008-5.656-2.426-1.332-5.125-1.348-7.004-.262-.312-1.671-1.57-3.316-3.468-4.265-1.352-.676-2.79-.875-4.051-.664 1.504-5.25-1.188-11.305-6.715-14.336-2.918-1.602-6.113-2.063-9.004-1.547-.414-2.48-2.293-4.738-5.039-5.684-2.266-.773-4.602-.476-6.379.602-1.355-3.485-5.117-6.16-9.73-6.496-4.454-.328-8.442 1.62-10.368 4.683-1.414-.957-3.336-1.297-5.246-.754-1.687.48-3.023 1.555-3.8 2.88-2.192-2.25-6.223-2.778-9.946-1.06-3.332 1.544-5.465 4.45-5.683 7.298-3.196-1.067-7.059-.977-10.786.535-5.753 2.336-9.414 7.34-9.48 12.246a9.095 9.095 0 0 0-4.516-1.192c-4.453 0-8.132 3.149-8.789 7.254-.48-.07-.972-.117-1.48-.117-4.727 0-8.563 3.336-8.563 7.453 0 4.118 3.836 7.453 8.563 7.453 1.46 0 2.832-.32 4.035-.878.54 2.77 3.7 4.898 7.523 4.898 2.2 0 4.172-.707 5.563-1.828.844 5.23 6.207 9.27 12.715 9.27 5.16 0 9.597-2.547 11.64-6.208a6.777 6.777 0 0 0 4.801 1.965c3.106 0 5.707-2.043 6.465-4.812 2.078 2.922 5.926 4.89 10.344 4.89 3.836 0 7.246-1.488 9.437-3.797 2.719 2.922 7.078 4.829 12.004 4.829 5.13 0 9.649-2.055 12.336-5.18 1.363 3.32 5.48 5.734 10.356 5.734 2.484 0 4.77-.636 6.597-1.691 1.844 1.617 5.5 2.722 9.711 2.722 3.305 0 6.258-.683 8.274-1.753.64.105 1.27.168 1.863.168 4.277 0 7.746-2.95 7.746-6.582 0-3.637-3.469-6.582-7.746-6.582"/></clipPath><clipPath id="d"><path d="M154.594 41.05.98 28.685l-5.546 69.804 153.609 12.367Zm0 0"/></clipPath><clipPath id="f"><path d="M0 72.46h150v26.4H0Zm0 0"/></clipPath><clipPath id="g"><path d="M9 40.375h132V84H9Zm0 0"/></clipPath><linearGradient id="e" x1="-.294" x2="1.368" y1="0" y2="0" gradientTransform="matrix(-3.3384 41.99855 -41.72932 -3.35994 77.949 47.293)" gradientUnits="userSpaceOnUse"><stop offset="0" stop-color="#FEB95E"/><stop offset=".125" stop-color="#FEB95E"/><stop offset=".188" stop-color="#FEB95E"/><stop offset=".195" stop-color="#FEB85E"/><stop offset=".203" stop-color="#FEB85E"/><stop offset=".211" stop-color="#FEB75E"/><stop offset=".219" stop-color="#FEB65E"/><stop offset=".227" stop-color="#FEB55F"/><stop offset=".234" stop-color="#FEB45F"/><stop offset=".242" stop-color="#FEB35F"/><stop offset=".25" stop-color="#FEB25F"/><stop offset=".258" stop-color="#FEB15F"/><stop offset=".266" stop-color="#FEB15F"/><stop offset=".27" stop-color="#FEB05F"/><stop offset=".273" stop-color="#FEB05F"/><stop offset=".281" stop-color="#FEAF5F"/><stop offset=".297" stop-color="#FEAE5F"/><stop offset=".305" stop-color="#FEAD5F"/><stop offset=".313" stop-color="#FEAD5F"/><stop offset=".316" stop-color="#FEAC60"/><stop offset=".32" stop-color="#FEAB60"/><stop offset=".328" stop-color="#FEAB60"/><stop offset=".336" stop-color="#FEAB60"/><stop offset=".344" stop-color="#FEAA60"/><stop offset=".352" stop-color="#FEA960"/><stop offset=".355" stop-color="#FEA860"/><stop offset=".359" stop-color="#FEA760"/><stop offset=".367" stop-color="#FEA760"/><stop offset=".375" stop-color="#FEA760"/><stop offset=".383" stop-color="#FEA660"/><stop offset=".391" stop-color="#FEA560"/><stop offset=".395" stop-color="#FEA460"/><stop offset=".398" stop-color="#FEA461"/><stop offset=".406" stop-color="#FEA361"/><stop offset=".414" stop-color="#FEA261"/><stop offset=".422" stop-color="#FEA161"/><stop offset=".438" stop-color="#FEA061"/><stop offset=".445" stop-color="#FEA061"/><stop offset=".453" stop-color="#FE9F61"/><stop offset=".461" stop-color="#FE9E61"/><stop offset=".469" stop-color="#FE9D61"/><stop offset=".477" stop-color="#FE9D61"/><stop offset=".48" stop-color="#FE9C61"/><stop offset=".484" stop-color="#FF9B62"/><stop offset=".5" stop-color="#FF9B62"/><stop offset=".508" stop-color="#FF9A62"/><stop offset=".516" stop-color="#FF9962"/><stop offset=".52" stop-color="#FF9762"/><stop offset=".523" stop-color="#FF9762"/><stop offset=".531" stop-color="#FF9762"/><stop offset=".539" stop-color="#FF9662"/><stop offset=".547" stop-color="#FF9562"/><stop offset=".555" stop-color="#FF9462"/><stop offset=".563" stop-color="#FF9462"/><stop offset=".566" stop-color="#FF9362"/><stop offset=".57" stop-color="#FF9363"/><stop offset=".578" stop-color="#FF9263"/><stop offset=".586" stop-color="#FF9263"/><stop offset=".594" stop-color="#FF9163"/><stop offset=".602" stop-color="#FF9063"/><stop offset=".605" stop-color="#FF9063"/><stop offset=".609" stop-color="#FF8F63"/><stop offset=".617" stop-color="#FF8F63"/><stop offset=".625" stop-color="#FF8E63"/><stop offset=".641" stop-color="#FF8D63"/><stop offset=".645" stop-color="#FF8B63"/><stop offset=".648" stop-color="#FF8B63"/><stop offset=".656" stop-color="#FF8A63"/><stop offset=".672" stop-color="#FF8964"/><stop offset=".68" stop-color="#FF8864"/><stop offset=".688" stop-color="#FF8764"/><stop offset=".695" stop-color="#FF8764"/><stop offset=".703" stop-color="#FF8664"/><stop offset=".711" stop-color="#FF8664"/><stop offset=".719" stop-color="#FF8564"/><stop offset=".727" stop-color="#FF8464"/><stop offset=".734" stop-color="#FF8364"/><stop offset=".742" stop-color="#FF8364"/><stop offset=".75" stop-color="#FF8265"/><stop offset=".758" stop-color="#FF8165"/><stop offset=".766" stop-color="#FF8065"/><stop offset=".77" stop-color="#FF7F65"/><stop offset=".773" stop-color="#FF7F65"/><stop offset=".781" stop-color="#FF7E65"/><stop offset=".813" stop-color="#FF7E65"/><stop offset=".875" stop-color="#FF7E65"/><stop offset="1" stop-color="#FF7E65"/></linearGradient></defs><g clip-path="url(#a)"><g clip-path="url(#b)"><g clip-path="url(#c)"><g clip-path="url(#d)"><path fill="url(#e)" d="M154.594 41.05.98 28.685l-5.546 69.804 153.609 12.367Zm0 0"/></g></g></g></g><g clip-path="url(#f)"><path fill="#fd654e" d="M146.984 83.941c-1.968 1.293-4.218 1.606-6.593 1.207-5.578 4.45-11.18 2.993-14.633 1.235-.531-.203-2.375-1.348-3.352-2.203-.027.02-.058.03-.082.047-1.363-1.125-2.93-2.754-4.324-5.075 0 0 .297 3.418 1.684 6.172-5.961 1.73-12.422-.781-14.23-5.187-4.614 5.367-14.743 7.39-21.18 2.093 1.054-2.964 1.265-7.203 1.265-7.203-3.73 13.153-29.762 12.364-13.867-2.535-12.113 9.262-24.274 4.957-24.274 4.957 10.883 6.715 4.102 11.578-8.972 11-6.106-.27-9.985-2.535-12.285-4.586-1.836-3.722 5.613-4.605 5.613-4.605-7.93.191-12.895-4.23-12.895-4.23 4.465 5.433-.527 5.804-.55 5.808-2.961-.555-5.235-2.414-5.684-4.727-3.305 1.543-7.453 1.047-10.16-1.367-6.711 5.988 1.488 15.82 10.16 11.778.922 4.734 8.73 6.585 13.086 3.07.844 5.23 6.207 9.27 12.715 9.27 5.164 0 9.601-2.547 11.64-6.212 3.614 3.59 9.922 2.043 11.254-2.859 4.266 6.031 14.563 6.617 19.793 1.11 6.149 6.609 18.559 6.37 24.34-.352 2.207 5.375 10.938 7.52 16.953 4.043 3.598 3.156 12.887 3.683 17.985.969 8.695 1.449 12.879-7.489 6.593-11.618"/></g><path fill="#fd654e" d="M40.21 74.078c-4.183.078-11.737-1.21-14.628-3.758 4.754 8.774 14.629 3.758 14.629 3.758M108.047 73.918c-10.004 4.602-18.672-1.902-18.672-1.902 8.195 12.687 18.672 1.902 18.672 1.902"/><g clip-path="url(#g)"><path fill="#fbe59c" d="M138.445 79.016c-1.449-.434-3.117-.391-4.386.03-.153-2.144-1.598-4.366-3.985-5.675-2.433-1.336-5.133-1.336-7.012-.238-.574-3.11-4.136-5.516-7.515-4.942 1.508-5.25-1.18-11.312-6.711-14.347-2.922-1.602-6.113-2.063-9.004-1.547-.414-2.48-2.293-4.738-5.039-5.684-2.266-.773-4.594-.465-6.375.621-1.348-3.496-5.113-6.18-9.734-6.515-4.461-.328-8.454 1.625-10.375 4.695-2.93-1.988-7.223-.973-9.032 2.121-4.703-4.84-15.105-.7-15.636 6.23-3.196-1.066-7.059-.976-10.786.536-5.753 2.336-9.414 7.34-9.48 12.246-6.668-3.79-14.98 1.922-13.176 9.328 1.516-3.535 5.348-5.133 9.281-5.203 2.457-.043 4.008-.922 4.856-1.84 0 0 13.723-4.586 22.125 2.285 0 0-1.738-1.918-4.617-3.84 0 0 10.343-7.535 18.851-2.351 0 0 8.153-6.024 14.317-2.004 0 0-3.754-5.953-13.45-2.813 0 0-13.82-3.68-22.628 5.48-3.23-1.6-7.282-2.706-11.692-1.839 3.5-4.504 9.531-6.797 15.664-4.734.524-6.922 10.832-11.07 15.492-6.227 1.797-3.098 6.047-4.11 8.954-2.121 4.41-7.11 16.957-5.95 19.93 1.816 3.581-2.199 8.261-.757 10.331 2.516-4.668 1.39-6.898 5.914-6.898 5.914 5.144-4.394 12.914-3.266 13.078-3.242 7.047 1.59 12.375 8.742 10.371 15.773 3.352-.574 6.883 1.832 7.445 4.942 3.79-2.239 9.454.46 10.668 4.68 3.13-2.09 8.625-.422 8.625-.422.196-1.457-.648-3.09-2.457-3.63"/></g></svg>